<svg xmlns="http://www.w3.org/2000/svg" width="327.5" height="100" viewBox="0 0 524 160">
  <g id="Group_9" data-name="Group 9" transform="translate(-51 -42)">
    <text id="SKAMBUČIŲ_CENTRAS" data-name="SKAMBUČIŲ
  CENTRAS" transform="translate(231 109)" fill="#f07c41" font-size="50" font-family="Montserrat-Bold, Montserrat" font-weight="700" letter-spacing="0.05em"><tspan x="0" y="0">SKAMBUČIŲ</tspan><tspan fill="#55bdca"><tspan x="0" y="61" xml:space="preserve" fill="#000">  </tspan><tspan y="61" fill="#55bdca">CENTRAS</tspan></tspan></text>
    <circle id="Ellipse_1" data-name="Ellipse 1" cx="80" cy="80" r="80" transform="translate(51 42)" fill="#022249"/>
    <g id="customer-service" transform="translate(81 72)">
      <path id="Path_8" data-name="Path 8" d="M117.216,416.525H105.6A15.238,15.238,0,0,1,90.375,401.3v-3.646H96.19V401.3a9.417,9.417,0,0,0,9.406,9.406h11.62Z" transform="translate(-72.858 -320.583)" fill="#f07c41"/>
      <path id="Path_9" data-name="Path 9" d="M118.832,43.416V58.534h-12.4V43.416a31.011,31.011,0,0,0-62.023,0V58.534H32V43.416a43.416,43.416,0,0,1,86.832,0Z" transform="translate(-25.798)" fill="#55bdca"/>
      <path id="Path_10" data-name="Path 10" d="M299.416,43.416V58.534h-12.4V43.416A31.009,31.009,0,0,0,256,12.4V0a43.417,43.417,0,0,1,43.416,43.416Z" transform="translate(-206.382)" fill="#f07c41"/>
      <path id="Path_11" data-name="Path 11" d="M0,288H15.118v18.607H0Z" transform="translate(0 -232.18)" fill="#55bdca"/>
      <path id="Path_12" data-name="Path 12" d="M76.4,287.011H69.839A5.839,5.839,0,0,1,64,281.173V261.839A5.839,5.839,0,0,1,69.839,256H76.4Z" transform="translate(-51.595 -206.382)" fill="#55bdca"/>
      <path id="Path_13" data-name="Path 13" d="M0,0H15.6V18.607H0Z" transform="translate(99.236 74.427) rotate(180)" fill="#f07c41"/>
      <path id="Path_14" data-name="Path 14" d="M384,287.011h6.566a5.839,5.839,0,0,0,5.839-5.839V261.839A5.839,5.839,0,0,0,390.566,256H384Z" transform="translate(-309.573 -206.382)" fill="#f07c41"/>
      <path id="Path_15" data-name="Path 15" d="M226.607,454.2a6.2,6.2,0,0,1-6.2,6.2h-6.2a6.2,6.2,0,1,1,0-12.4h6.2A6.2,6.2,0,0,1,226.607,454.2Z" transform="translate(-167.685 -361.168)" fill="#55bdca"/>
      <path id="Path_16" data-name="Path 16" d="M265.3,454.2a6.2,6.2,0,0,1-6.2,6.2H256V448h3.1A6.2,6.2,0,0,1,265.3,454.2Z" transform="translate(-206.382 -361.168)" fill="#f07c41"/>
    </g>
  </g>
</svg>
